<?xml version="1.0" encoding="UTF-8" standalone="no"?>
<svg
   xmlns:dc="http://purl.org/dc/elements/1.1/"
   xmlns:cc="http://creativecommons.org/ns#"
   xmlns:rdf="http://www.w3.org/1999/02/22-rdf-syntax-ns#"
   xmlns:svg="http://www.w3.org/2000/svg"
   xmlns="http://www.w3.org/2000/svg"
   xmlns:sodipodi="http://sodipodi.sourceforge.net/DTD/sodipodi-0.dtd"
   xmlns:inkscape="http://www.inkscape.org/namespaces/inkscape"
   viewBox="0 0 36 30"
   version="1.1"
   id="svg4"
   sodipodi:docname="cart.svg"
   inkscape:version="0.92.4 (5da689c313, 2019-01-14)"
   width="36"
   height="30">
  <metadata
     id="metadata10">
    <rdf:RDF>
      <cc:Work
         rdf:about="">
        <dc:format>image/svg+xml</dc:format>
        <dc:type
           rdf:resource="http://purl.org/dc/dcmitype/StillImage" />
        <dc:title />
      </cc:Work>
    </rdf:RDF>
  </metadata>
  <defs
     id="defs8">
    <pattern
       y="0"
       x="0"
       height="6"
       width="6"
       patternUnits="userSpaceOnUse"
       id="EMFhbasepattern" />
  </defs>
  <sodipodi:namedview
     pagecolor="#ffffff"
     bordercolor="#666666"
     borderopacity="1"
     objecttolerance="10"
     gridtolerance="10"
     guidetolerance="10"
     inkscape:pageopacity="0"
     inkscape:pageshadow="2"
     inkscape:window-width="1858"
     inkscape:window-height="1057"
     id="namedview6"
     showgrid="false"
     inkscape:zoom="16"
     inkscape:cx="13.215415"
     inkscape:cy="8.6822661"
     inkscape:window-x="-8"
     inkscape:window-y="-8"
     inkscape:window-maximized="1"
     inkscape:current-layer="svg4" />
  <path
     id="path15"
     d="M 31.5,24.095745 V 22.021276 H 10.260001 L 11.7,19.787233 32.400001,18.031914 36,6.0638306 H 8.2800018 L 6.8400024,0 H 0 V 2.0744678 H 5.0400017 L 9.7200018,18.829786 6.8400024,23.936171 v 3.031916 C 6.8400024,28.56383 8.2800018,30 10.080003,30 c 1.799999,0 3.420001,-1.43617 3.420001,-3.031913 0,-1.595747 -1.620002,-3.031916 -3.420001,-3.031916 h 16.919999 v 3.031916 c 0,1.595743 1.619997,3.031913 3.419996,3.031913 1.8,0 3.420002,-1.43617 3.420002,-3.031913 0,-1.436174 -0.899996,-2.393618 -2.34,-2.872342 z"
     style="fill:#000000;fill-opacity:1;fill-rule:nonzero;stroke:none;stroke-width:2.11851311"
     inkscape:connector-curvature="0" />
</svg>
